<?xml version="1.0" encoding="UTF-8" standalone="no"?>
<!-- Created with Sodipodi ("http://www.sodipodi.com/") -->
<svg
   xmlns:dc="http://purl.org/dc/elements/1.1/"
   xmlns:cc="http://web.resource.org/cc/"
   xmlns:rdf="http://www.w3.org/1999/02/22-rdf-syntax-ns#"
   xmlns:svg="http://www.w3.org/2000/svg"
   xmlns="http://www.w3.org/2000/svg"
   xmlns:xlink="http://www.w3.org/1999/xlink"
   xmlns:sodipodi="http://sodipodi.sourceforge.net/DTD/sodipodi-0.dtd"
   xmlns:inkscape="http://www.inkscape.org/namespaces/inkscape"
   id="svg171"
   sodipodi:version="0.32"
   width="358.84842"
   height="789.3559"
   sodipodi:docbase="/home/glibersat/Desktop"
   sodipodi:docname="glibersat_Pigeau.svg"
   inkscape:version="0.44.1"
   version="1.0">
  <metadata
     id="metadata124">
    <rdf:RDF>
      <cc:Work
         rdf:about="">
        <dc:format>image/svg+xml</dc:format>
        <dc:type
           rdf:resource="http://purl.org/dc/dcmitype/StillImage" />
      </cc:Work>
    </rdf:RDF>
  </metadata>
  <defs
     id="defs173">
    <linearGradient
       id="linearGradient239">
      <stop
         style="stop-color:#f8ce00;stop-opacity:1;"
         offset="0.000000"
         id="stop240" />
      <stop
         style="stop-color:#b79700;stop-opacity:1;"
         offset="1.000000"
         id="stop241" />
    </linearGradient>
    <linearGradient
       id="linearGradient231">
      <stop
         style="stop-color:#000;stop-opacity:1;"
         offset="0"
         id="stop232" />
      <stop
         style="stop-color:#fff;stop-opacity:1;"
         offset="1"
         id="stop233" />
    </linearGradient>
    <linearGradient
       xlink:href="#linearGradient239"
       id="linearGradient234"
       x1="0.55363399"
       y1="-0.125496"
       x2="0.570934"
       y2="1.33928"
       gradientUnits="objectBoundingBox"
       gradientTransform="translate(1.44297e-8,-1.13124e-6)"
       spreadMethod="pad" />
    <radialGradient
       xlink:href="#linearGradient239"
       id="radialGradient242"
       r="2.4611101"
       fy="0.47656199"
       fx="0.50877202"
       cy="0.47656199"
       cx="0.50877202"
       spreadMethod="pad"
       gradientUnits="objectBoundingBox" />
    <radialGradient
       xlink:href="#linearGradient239"
       id="radialGradient271"
       cx="0.46583599"
       cy="0.46094501"
       fx="0.46583599"
       fy="0.46094501"
       r="0.540039"
       gradientUnits="objectBoundingBox"
       spreadMethod="pad" />
    <radialGradient
       xlink:href="#linearGradient239"
       id="radialGradient273"
       cx="-0.80000901"
       cy="0.39843601"
       fx="-0.80000901"
       fy="0.39843601"
       r="0.201377"
       gradientUnits="objectBoundingBox"
       spreadMethod="pad" />
    <radialGradient
       xlink:href="#linearGradient239"
       id="radialGradient276" />
    <radialGradient
       xlink:href="#linearGradient239"
       id="radialGradient362" />
    <linearGradient
       xlink:href="#linearGradient239"
       id="linearGradient363" />
    <linearGradient
       xlink:href="#linearGradient239"
       id="linearGradient646" />
    <radialGradient
       inkscape:collect="always"
       xlink:href="#linearGradient239"
       id="radialGradient2095"
       gradientUnits="userSpaceOnUse"
       spreadMethod="pad"
       cx="657.7631"
       cy="319.37118"
       fx="657.7631"
       fy="319.37118"
       r="1269.346"
       gradientTransform="scale(0.658029,1.51969)" />
    <radialGradient
       inkscape:collect="always"
       xlink:href="#linearGradient239"
       id="radialGradient2097"
       gradientUnits="userSpaceOnUse"
       spreadMethod="pad"
       cx="897.24029"
       cy="153.65328"
       fx="897.24029"
       fy="153.65328"
       r="15.849248"
       gradientTransform="scale(0.300149,3.331683)" />
    <radialGradient
       inkscape:collect="always"
       xlink:href="#linearGradient239"
       id="radialGradient2099"
       gradientUnits="userSpaceOnUse"
       spreadMethod="pad"
       cx="897.24029"
       cy="153.65328"
       fx="897.24029"
       fy="153.65328"
       r="15.849248"
       gradientTransform="scale(0.300149,3.331683)" />
    <radialGradient
       inkscape:collect="always"
       xlink:href="#linearGradient239"
       id="radialGradient2101"
       gradientTransform="scale(1.463962,0.683078)"
       cx="294.42873"
       cy="598.62947"
       fx="294.42873"
       fy="598.62947"
       r="91.233506"
       gradientUnits="userSpaceOnUse" />
    <radialGradient
       inkscape:collect="always"
       xlink:href="#linearGradient239"
       id="radialGradient2103"
       gradientUnits="userSpaceOnUse"
       spreadMethod="pad"
       cx="378.78614"
       cy="819.89654"
       fx="378.78614"
       fy="819.89654"
       r="115.38989"
       gradientTransform="scale(1.116654,0.895532)" />
    <linearGradient
       inkscape:collect="always"
       xlink:href="#linearGradient239"
       id="linearGradient2105"
       gradientUnits="userSpaceOnUse"
       gradientTransform="scale(2.280351,0.438529)"
       spreadMethod="pad"
       x1="165.01989"
       y1="1956.5855"
       x2="166.88377"
       y2="2114.3986" />
  </defs>
  <sodipodi:namedview
     id="base"
     inkscape:zoom="0.35919193"
     inkscape:cx="372.04724"
     inkscape:cy="526.18109"
     inkscape:window-width="1020"
     inkscape:window-height="548"
     inkscape:window-x="0"
     inkscape:window-y="0"
     inkscape:current-layer="svg171" />
  <g
     id="g1988"
     transform="translate(-185.326,-121.8394)">
    <rect
       ry="8.5849104"
       y="744.87744"
       x="201.61296"
       height="78.695648"
       width="27.775"
       id="rect959"
       style="font-size:12px;fill:#60585a;fill-opacity:1;fill-rule:evenodd;stroke-width:1pt"
       rx="8.5849104" />
    <rect
       ry="8.5849104"
       y="734.87744"
       x="496.61298"
       height="78.695648"
       width="27.775"
       id="rect958"
       style="font-size:12px;fill:#60585a;fill-opacity:1;fill-rule:evenodd;stroke-width:1pt"
       rx="8.5849104" />
    <g
       style="fill:#4a00ad;fill-opacity:1"
       transform="matrix(-1,0,0,-1,467.972,887.962)"
       id="g786">
      <path
         d="M 76.616,699.191 C 71.1433,698.87 65.4793,698.803 60.049,699.531 C 56.4756,700.243 48.5756,703.298 52.394,708.208 C 57.6394,713.25 66.9246,712.477 73.5552,711.911 L 74.0689,717.905 C 64.94,718.655 53.9037,718.897 47.2283,711.576 C 41.2474,702.055 50.6046,695.177 59.2537,693.559 C 65.0356,692.826 70.8179,693.21 76.616,692.871 L 76.616,699.191 z "
         id="path787"
         style="fill:#4a00ad;fill-opacity:1;fill-rule:nonzero;stroke:none;stroke-width:1pt;stroke-linecap:butt;stroke-linejoin:miter;stroke-opacity:1" />
      <path
         transform="matrix(1,0,0,-1,0,1429.96)"
         d="M 76.616,699.191 C 71.1433,698.87 65.4793,698.803 60.049,699.531 C 56.4756,700.243 48.5756,703.298 52.394,708.208 C 57.6394,713.25 66.9246,712.477 73.5552,711.911 L 74.0689,717.905 C 64.94,718.655 53.9037,718.897 47.2283,711.576 C 41.2474,702.055 50.6046,695.177 59.2537,693.559 C 65.0356,692.826 70.8179,693.21 76.616,692.871 L 76.616,699.191 z "
         id="path788"
         style="fill:#4a00ad;fill-opacity:1;fill-rule:nonzero;stroke:none;stroke-width:1pt;stroke-linecap:butt;stroke-linejoin:miter;stroke-opacity:1" />
      <path
         transform="matrix(1.37761,0,0,1.37761,-36.3083,-268.329)"
         d="M 97.4725,715.314 C 95.9739,715.171 94.4332,715.233 92.9308,715.225 C 91.6593,715.221 87.3911,714.57 86.5992,715.949 C 86.3199,716.932 86.7952,718.057 87.6212,718.606 C 89.6232,719.635 92.3258,719.111 94.4738,719.008 C 97.1019,718.882 100.666,718.592 101.469,721.79 C 101.718,724.401 100.091,726.905 98.0616,728.42 C 95.3767,730.071 92.3203,729.766 89.3252,729.389 C 87.5418,729.152 85.7633,728.879 83.9754,728.678 L 84.3042,725.918 C 86.0979,726.132 87.8802,726.429 89.6708,726.666 C 91.8608,726.934 94.3741,727.341 96.3794,726.175 C 97.5334,725.36 98.6465,723.857 98.6551,722.384 C 98.6656,721.287 95.2401,721.72 94.6161,721.751 C 91.7183,721.906 88.5679,722.374 85.9381,720.875 C 83.8198,719.287 82.8836,716.252 84.5272,713.99 C 86.673,711.952 90.204,712.478 92.9308,712.469 C 94.4332,712.462 95.9739,712.524 97.4725,712.381 L 97.4725,715.314 z "
         id="path789"
         style="fill:#4a00ad;fill-opacity:1;fill-rule:nonzero;stroke:none;stroke-width:1pt;stroke-linecap:butt;stroke-linejoin:miter;stroke-opacity:1" />
      <g
         style="fill:#4a00ad;fill-opacity:1"
         transform="matrix(1.16605,0,0,1.06243,-26.2102,-45.238)"
         id="g790">
        <path
           d="M 109.26,713.835 C 111.314,714.063 113.441,713.973 115.502,713.985 C 119.39,714 123.278,713.968 127.167,713.951 C 127.946,713.946 128.726,713.94 129.505,713.915 L 129.505,717.142 C 128.726,717.116 127.946,717.11 127.167,717.105 C 123.278,717.088 119.39,717.056 115.502,717.071 C 113.441,717.083 111.314,716.993 109.26,717.221 L 109.26,713.835 z "
           id="path791"
           style="fill:#4a00ad;fill-opacity:1;fill-rule:nonzero;stroke:none;stroke-width:1pt;stroke-linecap:butt;stroke-linejoin:miter;stroke-opacity:1" />
        <path
           transform="translate(1.34464,0.336121)"
           d="M 119.37,715.871 C 119.211,717.113 119.291,718.422 119.283,719.669 C 119.272,722.157 119.271,724.645 119.289,727.134 C 119.301,728.782 119.317,730.43 119.321,732.078 C 119.322,733.064 119.319,734.051 119.317,735.037 L 115.996,735.037 C 115.994,734.051 115.991,733.064 115.993,732.078 C 115.996,730.43 116.012,728.782 116.024,727.134 C 116.042,724.645 116.042,722.157 116.031,719.669 C 116.022,718.422 116.103,717.113 115.943,715.871 L 119.37,715.871 z "
           id="path792"
           style="fill:#4a00ad;fill-opacity:1;fill-rule:nonzero;stroke:none;stroke-width:1pt;stroke-linecap:butt;stroke-linejoin:miter;stroke-opacity:1" />
      </g>
      <g
         style="fill:#4a00ad;fill-opacity:1"
         id="g793">
        <path
           d="M 129.455,713.855 C 129.236,715.561 129.341,717.357 129.321,719.072 C 129.275,723.382 129.27,727.693 129.313,732.004 C 129.33,733.415 129.351,734.827 129.379,736.238 L 126.104,736.238 C 126.131,734.827 126.153,733.415 126.17,732.004 C 126.213,727.693 126.207,723.382 126.162,719.072 C 126.141,717.357 126.247,715.561 126.028,713.855 L 129.455,713.855 z "
           id="path794"
           style="fill:#4a00ad;fill-opacity:1;fill-rule:nonzero;stroke:none;stroke-width:1pt;stroke-linecap:butt;stroke-linejoin:miter;stroke-opacity:1" />
        <path
           d="M 127.413,712.827 C 128.823,712.983 130.276,712.901 131.693,712.94 C 134.72,713.078 137.382,713.961 137.779,717.351 C 137.87,720.746 136.007,722.782 132.71,723.411 C 131.163,723.606 129.651,723.547 128.105,723.382 L 128.458,720.215 C 129.679,720.352 130.88,720.415 132.103,720.266 C 133.708,719.97 134.521,719.386 134.508,717.69 C 134.384,716.155 132.911,716.202 131.613,716.14 C 130.23,716.112 128.792,716.059 127.413,716.213 L 127.413,712.827 z "
           id="path795"
           style="fill:#4a00ad;fill-opacity:1;fill-rule:nonzero;stroke:none;stroke-width:1pt;stroke-linecap:butt;stroke-linejoin:miter;stroke-opacity:1" />
        <path
           d="M 128.757,721.903 C 129.98,722.039 131.249,721.975 132.477,721.985 C 135.115,722.006 138.074,721.801 140.265,723.52 C 142.118,725.48 141.48,727.892 140.786,730.216 C 140.314,731.789 139.912,733.334 139.861,734.983 C 139.858,735.305 139.861,735.624 139.869,735.945 L 136.564,736.029 C 136.554,735.646 136.551,735.264 136.555,734.881 C 136.617,732.95 137.081,731.138 137.637,729.298 C 137.889,728.454 138.59,726.892 138.123,726.008 C 137.007,724.74 133.95,725.195 132.477,725.207 C 131.249,725.217 129.98,725.153 128.757,725.289 L 128.757,721.903 z "
           id="path796"
           style="fill:#4a00ad;fill-opacity:1;fill-rule:nonzero;stroke:none;stroke-width:1pt;stroke-linecap:butt;stroke-linejoin:miter;stroke-opacity:1" />
        <rect
           y="712.83899"
           x="126.061"
           height="3.02545"
           width="2.3531401"
           id="rect797"
           style="font-size:12px;fill:#4a00ad;fill-opacity:1;fill-rule:evenodd;stroke-width:1pt" />
      </g>
      <path
         id="path798"
         d="M 165.392,724.773 C 165.392,731.731 160.196,737.379 153.794,737.379 C 147.392,737.379 142.197,731.731 142.197,724.773 C 142.197,717.814 147.392,712.167 153.794,712.167 C 160.196,712.167 165.392,717.814 165.392,724.773 z M 161.694,724.451 C 161.694,729.19 158.154,733.037 153.794,733.037 C 149.433,733.037 145.894,729.19 145.894,724.451 C 145.894,719.71 149.433,715.864 153.794,715.864 C 158.154,715.864 161.694,719.71 161.694,724.451 z "
         style="font-size:12px;fill:#4a00ad;fill-opacity:1;fill-rule:evenodd;stroke-width:1pt" />
    </g>
    <rect
       ry="8.5849104"
       y="219.87744"
       x="504.11298"
       height="78.695648"
       width="27.775"
       id="rect317"
       style="font-size:12px;fill:#60585a;fill-opacity:1;fill-rule:evenodd;stroke-width:1pt"
       rx="8.5849104" />
    <rect
       ry="8.5849104"
       y="222.96367"
       x="193.9593"
       height="78.695648"
       width="27.775"
       id="rect316"
       style="font-size:12px;fill:#60585a;fill-opacity:1;fill-rule:evenodd;stroke-width:1pt"
       rx="8.5849104" />
    <path
       transform="translate(-66.8166,10.0224)"
       sodipodi:nodetypes="ccccccccccc"
       id="path184"
       d="M 430.869,894.799 C 317.801,897.161 300.467,876.879 283.763,873.538 C 267.058,834.762 263.886,507.807 273.908,481.08 C 281.401,420.54 268.972,410.515 265.221,337.554 C 258.081,252.341 275.036,299.725 260.782,213.073 C 282.44,122.857 241.646,121.02 429.304,112.442 C 601.513,114.843 577.26,122.857 598.918,213.073 C 584.664,299.725 601.619,252.341 594.479,337.554 C 590.728,410.515 578.299,420.54 585.792,481.08 C 595.814,507.807 592.642,834.762 575.937,873.538 C 549.784,888.691 480.478,894.799 430.869,894.799 z "
       style="font-size:12px;fill:url(#radialGradient2095);fill-opacity:1;fill-rule:evenodd;stroke:black;stroke-width:1pt" />
    <rect
       y="566.68317"
       x="202.24046"
       height="25.056313"
       width="322.02939"
       id="rect301"
       style="font-size:12px;fill:#a4250e;fill-opacity:1;fill-rule:evenodd;stroke-width:1pt" />
    <rect
       y="533.46393"
       x="202.95537"
       height="25.056313"
       width="319.88461"
       id="rect300"
       style="font-size:12px;fill:#148f84;fill-opacity:1;fill-rule:evenodd;stroke-width:1pt" />
    <path
       transform="matrix(1.30222,0,0,1.09057,-157.671,-40.6314)"
       id="path272"
       d="M 295.291,407.447 C 295.291,407.447 311.827,483.042 311.827,483.042 C 311.827,483.042 311.827,624.781 309.465,627.144 C 307.102,629.506 288.204,669.665 288.204,669.665 C 288.204,669.665 292.928,412.172 295.291,407.447 z "
       style="fill:url(#radialGradient2097);fill-opacity:1;fill-rule:evenodd;stroke:none;stroke-width:1pt;stroke-linecap:butt;stroke-linejoin:miter;stroke-opacity:1" />
    <path
       transform="matrix(-1.30222,0,0,1.09057,888.701,-45.6314)"
       id="path274"
       d="M 295.291,407.447 C 295.291,407.447 311.827,483.042 311.827,483.042 C 311.827,483.042 311.827,624.781 309.465,627.144 C 307.102,629.506 288.204,669.665 288.204,669.665 C 288.204,669.665 292.928,412.172 295.291,407.447 z "
       style="fill:url(#radialGradient2099);fill-opacity:1;fill-rule:evenodd;stroke:none;stroke-width:1pt;stroke-linecap:butt;stroke-linejoin:miter;stroke-opacity:1" />
    <path
       transform="translate(-66.8166,10.0224)"
       sodipodi:nodetypes="cccccc"
       id="path230"
       d="M 289.341,156.338 C 277.674,175.005 278.525,352.557 297.192,366.557 C 315.222,351.706 419.668,337.911 439.534,339.193 C 459.822,337.701 539.228,347.248 563.623,361.89 C 570.2,364.02 583.35,156.337 564.682,142.337 C 506.347,126.004 312.675,126.004 289.341,156.338 z "
       style="fill:#f7ce00;fill-opacity:1;fill-rule:evenodd;stroke:black;stroke-width:1pt;stroke-linecap:butt;stroke-linejoin:miter;stroke-opacity:0.45911901" />
    <path
       transform="matrix(1.02739,0,0,1.08624,-78.7161,-24.8677)"
       sodipodi:nodetypes="cscccc"
       id="path275"
       d="M 297.653,372.012 C 297.653,372.012 361.436,347.25 432.6,346.617 C 496.678,346.027 525.617,355.476 564.595,369.65 C 559.871,414.535 555.146,457.055 543.334,471.229 C 434.667,445.243 427.581,445.244 318.914,471.23 C 316.552,457.056 295.291,374.374 297.653,372.012 z "
       style="fill:url(#radialGradient2101);fill-opacity:1;fill-rule:evenodd;stroke:none;stroke-width:1pt;stroke-linecap:butt;stroke-linejoin:miter;stroke-opacity:1" />
    <path
       transform="translate(-66.8166,10.0224)"
       sodipodi:nodetypes="cscccc"
       id="path185"
       d="M 297.653,372.012 C 297.653,372.012 361.436,347.25 432.6,346.617 C 496.678,346.027 525.617,355.476 564.595,369.65 C 559.871,414.535 555.146,457.055 543.334,471.229 C 434.667,445.243 427.581,445.244 318.914,471.23 C 316.552,457.056 295.291,374.374 297.653,372.012 z "
       style="fill:black;fill-opacity:0.70440297;fill-rule:evenodd;stroke:black;stroke-width:1pt;stroke-linecap:butt;stroke-linejoin:miter;stroke-opacity:1" />
    <path
       transform="matrix(1.04715,0,0,1.04715,-87.7699,-25.7114)"
       sodipodi:nodetypes="cccccc"
       id="path270"
       d="M 333.088,648.405 C 321.276,705.1 311.827,813.768 311.827,813.768 C 330.726,830.304 427.581,837.391 429.943,837.391 C 437.03,837.391 533.886,830.304 550.422,806.681 C 550.422,792.507 540.972,690.927 531.523,646.043 C 448.842,657.854 337.813,653.13 333.088,648.405 z "
       style="fill:url(#radialGradient2103);fill-opacity:1;fill-rule:evenodd;stroke:none;stroke-width:1pt;stroke-linecap:butt;stroke-linejoin:miter;stroke-opacity:1" />
    <path
       transform="translate(-66.8166,10.0224)"
       sodipodi:nodetypes="cccccc"
       id="path188"
       d="M 333.088,648.405 C 321.276,705.1 311.827,813.768 311.827,813.768 C 330.726,830.304 427.581,837.391 429.943,837.391 C 437.03,837.391 533.886,830.304 550.422,806.681 C 550.422,792.507 540.972,690.927 531.523,646.043 C 448.842,657.854 337.813,653.13 333.088,648.405 z "
       style="fill:black;fill-opacity:0.78616399;fill-rule:evenodd;stroke:black;stroke-width:1pt;stroke-linecap:butt;stroke-linejoin:miter;stroke-opacity:1" />
    <path
       transform="translate(-66.8166,10.0224)"
       id="path189"
       d="M 574.045,390.911 C 574.045,390.911 602.393,393.273 602.393,393.273 C 602.393,393.273 616.567,407.447 607.118,414.534 C 597.668,421.621 574.045,412.172 574.045,412.172 C 574.045,412.172 574.045,395.636 574.045,390.911 z "
       style="fill:#f7ce00;fill-opacity:1;fill-rule:evenodd;stroke:black;stroke-width:1.25;stroke-linecap:butt;stroke-linejoin:miter;stroke-dasharray:none;stroke-opacity:0.55345914" />
    <path
       transform="matrix(-1,0,0,1,792.237,12.3558)"
       sodipodi:nodetypes="cccccc"
       id="path194"
       d="M 307.235,893.185 C 300.858,882.914 299.128,871.23 297.786,861.737 C 297.136,853.686 295.528,849.579 297.653,839.753 C 298.834,832.666 302.235,831.499 307.693,833.257 C 312.107,835.974 310.056,837.391 309.465,851.565 C 304.814,872.633 309.067,897.14 307.235,893.185 z "
       style="fill:#deb500;fill-opacity:1;fill-rule:evenodd;stroke:none;stroke-width:1pt;stroke-linecap:butt;stroke-linejoin:miter;stroke-opacity:1" />
    <path
       transform="matrix(-1,0,0,1,796.317,14.7471)"
       id="path190"
       d="M 574.045,390.911 C 574.045,390.911 602.393,393.273 602.393,393.273 C 602.393,393.273 616.567,407.447 607.118,414.534 C 597.668,421.621 574.045,412.172 574.045,412.172 C 574.045,412.172 574.045,395.636 574.045,390.911 z "
       style="fill:#f7ce00;fill-opacity:1;fill-rule:evenodd;stroke:black;stroke-width:1pt;stroke-linecap:butt;stroke-linejoin:miter;stroke-opacity:0.54717" />
    <path
       transform="translate(-66.8166,10.0224)"
       sodipodi:nodetypes="cccccc"
       id="path193"
       d="M 307.235,893.185 C 300.858,882.914 299.128,871.23 297.786,861.737 C 297.136,853.686 295.528,849.579 297.653,839.753 C 298.834,832.666 302.235,831.499 307.693,833.257 C 312.107,835.974 310.056,837.391 309.465,851.565 C 304.814,872.633 309.067,897.14 307.235,893.185 z "
       style="fill:#deb500;fill-opacity:1;fill-rule:evenodd;stroke:none;stroke-width:1pt;stroke-linecap:butt;stroke-linejoin:miter;stroke-opacity:1" />
    <rect
       ry="10.4992"
       y="863.94873"
       x="240.28535"
       height="47.246536"
       width="245.68201"
       id="rect191"
       style="font-size:12px;fill:url(#linearGradient2105);fill-opacity:1;fill-rule:evenodd;stroke-width:1pt"
       rx="10.4992" />
    <path
       sodipodi:nodetypes="cc"
       transform="matrix(-1,0,0,1,798.025,17.0227)"
       id="path228"
       d="M 576.349,415.345 C 578.682,441.012 585.682,868.024 571.683,858.69"
       style="fill:none;fill-opacity:1;fill-rule:evenodd;stroke:black;stroke-width:1pt;stroke-linecap:butt;stroke-linejoin:miter;stroke-opacity:1" />
    <path
       transform="translate(-66.8166,10.0224)"
       sodipodi:nodetypes="cccccccccc"
       id="path312"
       d="M 357.259,138.219 C 347.255,138.812 343.555,140.422 343.555,142.132 L 344.101,185.166 C 344.101,186.876 345.477,188.252 347.187,188.252 L 510.751,188.252 C 512.461,188.252 513.837,186.876 513.837,185.166 L 513.837,141.586 C 511.655,139.331 513.038,136.978 501.818,136.738 C 475.396,135.015 456.723,134.025 428.229,134.079 C 407.238,134.128 378.452,135.114 357.259,138.219 z "
       style="font-size:12px;fill:#ce231c;fill-rule:evenodd;stroke-width:1pt" />
    <g
       style="fill:#9d0000;fill-opacity:1"
       transform="translate(-64.0261,9.32477)"
       id="g642">
      <path
         transform="translate(48.1363,-90.6915)"
         d="M 280.488,961.018 C 280.184,967.851 283.565,972.406 289.203,976.036 C 301.939,982.353 313.764,979.004 325.018,971.474 C 329.923,968.29 337.313,976.474 342.736,978.068 C 351.549,979.875 366.297,978.915 368.238,967.671 C 368.179,965.017 367.177,963.428 365.352,961.547 L 367.028,959.08 C 369.755,961.934 370.926,964.483 370.818,968.456 C 368.033,981.311 353.026,983.193 342.179,981.03 C 337.805,979.795 329.658,972.399 326.236,974.379 C 313.979,981.917 301.691,985.287 288.088,978.727 C 281.144,974.379 277.971,969.069 277.613,961.018 L 280.488,961.018 z "
         id="path643"
         style="fill:#9d0000;fill-opacity:1;fill-rule:nonzero;stroke:none;stroke-width:1pt;stroke-linecap:butt;stroke-linejoin:miter;stroke-opacity:1" />
      <path
         transform="translate(41.16,-82.32)"
         d="M 385.825,972.248 C 385.478,974.035 386.843,968.751 387.312,966.992 C 388.432,962.79 389.22,958.511 390.503,954.354 C 393.808,946.418 404.043,942.61 410.114,950.242 C 412.842,956.187 403.627,959.376 405.506,962.958 C 411.488,971.082 426.056,972.62 435.174,973.333 C 439.662,973.46 443.892,973.202 448.27,972.18 L 448.716,975.22 C 444.132,976.212 439.703,976.456 435.02,976.295 C 424.987,975.484 409.078,973.782 403.009,964.381 C 401.065,958.447 409.278,956.629 408.11,952.522 C 403.951,946.18 395.375,949.937 392.96,955.524 C 391.177,961.204 389.53,967.408 388.57,973.298 L 385.825,972.248 z "
         id="path644"
         style="fill:#9d0000;fill-opacity:1;fill-rule:nonzero;stroke:none;stroke-width:1pt;stroke-linecap:butt;stroke-linejoin:miter;stroke-opacity:1" />
      <path
         transform="translate(26.5099,-87.2033)"
         d="M 488.324,957.173 C 484.332,956.916 481.207,958.03 478.027,960.507 C 472.201,965.955 467.338,973.188 477.081,976.58 C 485.655,978.65 494.046,978.112 502.577,976.074 L 503.012,978.898 C 494.126,980.968 485.374,981.546 476.417,979.594 C 463.726,975.44 469.321,964.63 476.635,957.777 C 480.369,954.855 483.745,953.905 488.324,953.611 L 488.324,957.173 z "
         id="path645"
         style="fill:#9d0000;fill-opacity:1;fill-rule:nonzero;stroke:none;stroke-width:1pt;stroke-linecap:butt;stroke-linejoin:miter;stroke-opacity:1" />
    </g>
    <path
       transform="matrix(1.47726,0,0,0.792508,-205.044,35.3204)"
       sodipodi:nodetypes="ccccc"
       id="path304"
       d="M 299.847,130.654 C 293.739,132.639 286.769,154.625 289.975,158.29 C 297.611,151.112 312.535,141.248 327.195,138.499 C 330.096,135.597 334.055,126.694 334.208,124.709 C 324.13,123.64 306.51,128.211 299.847,130.654 z "
       style="fill:#2e87cf;fill-opacity:0.566038;fill-rule:evenodd;stroke:black;stroke-width:1pt;stroke-linecap:butt;stroke-linejoin:miter;stroke-opacity:0.25157201" />
    <path
       transform="matrix(-1.47726,0,0,0.792508,926.973,30.4103)"
       sodipodi:nodetypes="ccccc"
       id="path306"
       d="M 299.847,130.654 C 293.739,132.639 286.769,149.118 289.975,152.783 C 297.611,145.605 312.535,143.313 327.195,140.564 C 330.096,137.662 334.055,126.694 334.208,124.709 C 324.13,123.64 306.51,128.211 299.847,130.654 z "
       style="fill:#2e87cf;fill-opacity:0.566038;fill-rule:evenodd;stroke:black;stroke-width:1pt;stroke-linecap:butt;stroke-linejoin:miter;stroke-opacity:0.25157201" />
    <path
       transform="translate(-66.8166,10.0224)"
       sodipodi:nodetypes="cc"
       id="path307"
       d="M 364.428,122.197 C 401.526,115.65 464.265,116.195 490.997,119.468"
       style="fill:none;fill-opacity:0.564706;fill-rule:evenodd;stroke:black;stroke-width:1pt;stroke-linecap:butt;stroke-linejoin:miter;stroke-opacity:0.37106904" />
    <path
       transform="translate(-66.8166,12.7502)"
       sodipodi:nodetypes="cc"
       id="path308"
       d="M 364.428,122.197 C 401.526,115.65 464.265,116.195 490.997,119.468"
       style="fill:none;fill-opacity:0.564706;fill-rule:evenodd;stroke:black;stroke-width:1pt;stroke-linecap:butt;stroke-linejoin:miter;stroke-opacity:0.37106904" />
    <path
       transform="translate(-66.8166,16.0235)"
       sodipodi:nodetypes="cc"
       id="path309"
       d="M 364.428,122.197 C 401.526,115.65 464.265,116.195 490.997,119.468"
       style="fill:none;fill-opacity:0.564706;fill-rule:evenodd;stroke:black;stroke-width:1pt;stroke-linecap:butt;stroke-linejoin:miter;stroke-opacity:0.37106904" />
    <path
       transform="translate(-66.8166,19.8423)"
       sodipodi:nodetypes="cc"
       id="path310"
       d="M 364.428,122.197 C 401.526,116.196 462.628,117.286 488.815,118.922"
       style="fill:none;fill-opacity:0.564706;fill-rule:evenodd;stroke:black;stroke-width:1pt;stroke-linecap:butt;stroke-linejoin:miter;stroke-opacity:0.37106904" />
    <path
       transform="translate(-66.8166,10.0224)"
       id="path186"
       d="M 295.291,407.447 C 295.291,407.447 311.827,483.042 311.827,483.042 C 311.827,483.042 311.827,624.781 309.465,627.144 C 307.102,629.506 288.204,669.665 288.204,669.665 C 288.204,669.665 292.928,412.172 295.291,407.447 z "
       style="fill:black;fill-opacity:0.68553503;fill-rule:evenodd;stroke:black;stroke-width:1pt;stroke-linecap:butt;stroke-linejoin:miter;stroke-opacity:1" />
    <path
       transform="translate(-66.8166,10.0224)"
       id="path211"
       d="M 576.349,415.345 C 578.682,441.012 585.682,868.024 571.683,858.69"
       style="fill:none;fill-opacity:1;fill-rule:evenodd;stroke:black;stroke-width:1pt;stroke-linecap:butt;stroke-linejoin:miter;stroke-opacity:1" />
    <path
       transform="translate(-57.5228,0.728424)"
       d="M 350.151,528.344 C 349.576,532.016 349.808,535.949 349.607,539.649 C 348.752,551.904 346.769,564.085 344.113,576.074 C 343.462,578.893 342.775,581.695 341.999,584.482 L 333.466,580.441 C 334.292,577.969 335.01,575.474 335.688,572.957 C 338.508,561.911 340.387,550.578 340.72,539.17 C 340.768,535.65 341.003,531.849 340.455,528.344 L 350.151,528.344 z "
       id="path313"
       style="fill:black;fill-opacity:1;fill-rule:nonzero;stroke:none;stroke-width:1pt;stroke-linecap:butt;stroke-linejoin:miter;stroke-opacity:1" />
    <path
       transform="translate(-57.5228,0.728424)"
       d="M 332.322,577.194 C 339.805,571.566 350.674,568.798 359.121,564.924 C 368.406,560.649 377.666,556.325 387.079,552.334 L 389.681,562.933 C 380.188,566.153 371.018,570.197 361.892,574.326 C 356.297,576.892 350.671,579.424 345.243,582.335 C 343.804,583.107 337.922,586.954 338.368,586.603 L 332.322,577.194 z "
       id="path316"
       style="fill:black;fill-opacity:1;fill-rule:nonzero;stroke:none;stroke-width:1pt;stroke-linecap:butt;stroke-linejoin:miter;stroke-opacity:1" />
    <path
       transform="translate(-57.5228,0.728424)"
       d="M 374.458,550.507 C 373.77,555.516 373.549,560.543 373.483,565.605 C 373.511,576.632 374.153,587.614 375.57,598.551 L 367.355,600.103 C 366.053,588.657 365.368,577.189 364.958,565.679 C 364.869,561.871 364.972,552.04 364.762,550.507 L 374.458,550.507 z "
       id="path317"
       style="fill:black;fill-opacity:1;fill-rule:nonzero;stroke:none;stroke-width:1pt;stroke-linecap:butt;stroke-linejoin:miter;stroke-opacity:1" />
    <path
       transform="translate(-57.5228,0.728424)"
       d="M 488.129,494.743 C 487.242,501.209 480.86,503.442 475.735,506.38 C 470.688,509.214 465.396,511.559 460.172,514.043 L 457.158,504.046 C 462.208,501.708 467.156,499.267 471.951,496.437 C 473.735,495.345 475.527,494.259 477.247,493.065 C 478.093,492.478 480.354,490.381 479.674,491.154 C 478.838,492.105 478.605,495.998 478.433,494.743 L 488.129,494.743 z "
       id="path338"
       style="fill:black;fill-opacity:1;fill-rule:nonzero;stroke:none;stroke-width:1pt;stroke-linecap:butt;stroke-linejoin:miter;stroke-opacity:1" />
    <path
       transform="translate(-57.5228,-2.13107)"
       d="M 460.248,536.468 C 469.423,528.937 486.935,534.18 495.75,538.491 C 530.126,560.735 542.832,602.774 497.411,621.042 C 443.606,635.315 380.737,629.596 327.585,614.5 L 328.798,608.771 C 380.142,628.116 443.522,634.02 495.838,615.631 C 531.569,597.472 524.582,565.769 493.281,546.678 C 487.081,543.911 481.272,542.06 474.464,543.403 C 472.655,543.76 464.631,547.31 466.309,545.901 L 460.248,536.468 z "
       id="path351"
       style="fill:black;fill-opacity:1;fill-rule:nonzero;stroke:none;stroke-width:1pt;stroke-linecap:butt;stroke-linejoin:miter;stroke-opacity:1" />
    <path
       transform="translate(-57.5228,0.728424)"
       d="M 458.817,502.61 C 458.424,505.129 460.436,507.445 461.245,509.863 C 464.217,518.972 465.768,528.246 467.052,537.718 C 467.299,539.621 467.53,541.523 467.725,543.432 L 458.57,544.584 C 458.472,542.847 458.327,541.118 458.162,539.387 C 457.265,530.85 455.917,522.547 452.987,514.45 C 451.489,510.523 449.771,506.768 449.122,502.61 L 458.817,502.61 z "
       id="path360"
       style="fill:black;fill-opacity:1;fill-rule:nonzero;stroke:none;stroke-width:1pt;stroke-linecap:butt;stroke-linejoin:miter;stroke-opacity:1" />
    <path
       transform="matrix(-1,0,0,1,797.795,5.29782)"
       id="path187"
       d="M 295.291,407.447 C 295.291,407.447 311.827,483.042 311.827,483.042 C 311.827,483.042 311.827,624.781 309.465,627.144 C 307.102,629.506 288.204,669.665 288.204,669.665 C 288.204,669.665 292.928,412.172 295.291,407.447 z "
       style="fill:black;fill-opacity:0.74842799;fill-rule:evenodd;stroke:black;stroke-width:1pt;stroke-linecap:butt;stroke-linejoin:miter;stroke-opacity:1" />
    <path
       transform="translate(-66.8166,10.0224)"
       id="path388"
       d="M 469.697,541.199 C 469.697,562.51 452.562,579.805 431.449,579.805 C 410.336,579.805 393.201,562.51 393.201,541.199 C 393.201,519.889 410.336,502.594 431.449,502.594 C 452.562,502.594 469.697,519.889 469.697,541.199 z M 458.948,539.544 C 458.948,555.47 446.142,568.395 430.364,568.395 C 414.586,568.395 401.781,555.47 401.781,539.544 C 401.781,523.618 414.586,510.693 430.364,510.693 C 446.142,510.693 458.948,523.618 458.948,539.544 z "
       style="font-size:12px;fill-rule:evenodd;stroke-width:1pt" />
    <rect
       transform="matrix(0.959478,-0.281782,0.281782,0.959478,0,0)"
       y="368.39398"
       x="328.78571"
       height="34.183689"
       width="6.9762578"
       id="rect427"
       style="font-size:12px;fill:black;fill-opacity:1;fill-rule:evenodd;stroke-width:1pt" />
    <path
       transform="matrix(-0.99926,3.84523e-2,-3.96294e-2,-1.02985,710.601,319.989)"
       sodipodi:end="5.481782"
       sodipodi:start="0.067095"
       sodipodi:ry="17.091866"
       sodipodi:rx="15.696564"
       sodipodi:cy="48.129585"
       sodipodi:cx="323.34964"
       d="M 339.01089,49.275504 A 15.696564,17.091866 0 1 1 334.26973,35.851933 L 323.34964,48.129585 z"
       id="path430"
       style="font-size:12px;fill:black;fill-opacity:1;fill-rule:evenodd;stroke-width:1pt"
       sodipodi:type="arc" />
    <g
       transform="matrix(-0.941026,-0.338334,0.338334,-0.941026,641.618,455.165)"
       style="fill:black;fill-opacity:1"
       id="g443">
      <rect
         transform="matrix(0.982714,0.185132,-0.185132,0.982714,0,0)"
         y="-40.279713"
         x="379.00201"
         height="34.183712"
         width="6.976263"
         id="rect439"
         style="font-size:12px;fill:black;fill-opacity:1;fill-rule:evenodd;stroke-width:1pt" />
      <rect
         transform="matrix(0.983112,-0.183004,0.186592,0.982438,0,0)"
         y="101.58318"
         x="370.69708"
         height="33.853626"
         width="6.9738932"
         id="rect440"
         style="font-size:12px;fill:black;fill-opacity:1;fill-rule:evenodd;stroke-width:1pt" />
      <rect
         y="30.339869"
         x="380.20636"
         height="4.5346098"
         width="10.1155"
         id="rect441"
         style="font-size:12px;fill:black;fill-opacity:1;fill-rule:evenodd;stroke-width:1pt" />
      <rect
         y="50.222198"
         x="380.55499"
         height="3.1393399"
         width="10.1155"
         id="rect442"
         style="font-size:12px;fill:black;fill-opacity:1;fill-rule:evenodd;stroke-width:1pt" />
    </g>
    <g
       transform="matrix(-0.997898,-6.481e-2,6.481e-2,-0.997898,690.065,353.723)"
       style="fill:black;fill-opacity:1"
       id="g448">
      <rect
         y="30.688824"
         x="343.23212"
         height="34.183701"
         width="6.9762602"
         id="rect435"
         style="font-size:12px;fill:black;fill-opacity:1;fill-rule:evenodd;stroke-width:1pt" />
      <rect
         y="30.688633"
         x="344.97623"
         height="5.2322402"
         width="16.394199"
         id="rect436"
         style="font-size:12px;fill:black;fill-opacity:1;fill-rule:evenodd;stroke-width:1pt" />
      <rect
         y="45.687714"
         x="344.97635"
         height="4.8833499"
         width="18.487101"
         id="rect437"
         style="font-size:12px;fill:black;fill-opacity:1;fill-rule:evenodd;stroke-width:1pt" />
      <rect
         y="59.640064"
         x="344.97623"
         height="5.2322402"
         width="20.231136"
         id="rect438"
         style="font-size:12px;fill:black;fill-opacity:1;fill-rule:evenodd;stroke-width:1pt" />
    </g>
    <g
       transform="matrix(-0.898834,0.438288,-0.438288,-0.898834,733.695,185.569)"
       style="fill:black;fill-opacity:1"
       id="g453">
      <rect
         y="31.037701"
         x="265.09799"
         height="34.183701"
         width="6.9762602"
         id="rect429"
         style="font-size:12px;fill:black;fill-opacity:1;fill-rule:evenodd;stroke-width:1pt" />
      <path
         id="path434"
         d="M 269.808,31.2909 C 276.785,29.9256 283.618,34.1736 285.061,40.7729 C 286.505,47.3723 282.014,53.8362 275.038,55.2015 C 273.395,55.5229 271.947,55.549 270.293,55.2872 M 270.855,36.0714 C 275.323,35.2555 279.699,37.7942 280.624,41.7381 C 281.548,45.6821 278.672,49.5451 274.204,50.3611 C 273.152,50.5532 272.224,50.5688 271.165,50.4123"
         style="font-size:12px;fill:black;fill-opacity:1;fill-rule:evenodd;stroke-width:1pt" />
    </g>
    <g
       transform="matrix(-0.804116,-0.594473,0.594473,-0.804116,562.467,547.883)"
       style="fill:black;fill-opacity:1"
       id="g516">
      <rect
         y="30.688774"
         x="403.9256"
         height="25.812183"
         width="6.9762602"
         id="rect456"
         style="font-size:12px;fill:black;fill-opacity:1;fill-rule:evenodd;stroke-width:1pt" />
      <rect
         y="30.688723"
         x="419.27341"
         height="25.463385"
         width="6.9762602"
         id="rect457"
         style="font-size:12px;fill:black;fill-opacity:1;fill-rule:evenodd;stroke-width:1pt" />
      <path
         id="path515"
         d="M 426.25,55.6288 C 426.25,60.7312 421.249,64.8723 415.088,64.8723 C 409.114,64.8723 404.224,61.0112 403.939,56.0692 M 419.093,55.9774 C 419.093,57.7213 417.26,59.1367 415.002,59.1367 C 412.811,59.1367 411.019,57.817 410.915,56.1279"
         style="font-size:12px;fill:black;fill-opacity:1;fill-rule:evenodd;stroke-width:1pt" />
    </g>
    <g
       transform="translate(-66.8166,10.0224)"
       id="g638">
      <path
         transform="translate(48.1363,-90.6915)"
         d="M 280.488,961.018 C 280.184,967.851 283.565,972.406 289.203,976.036 C 301.939,982.353 313.764,979.004 325.018,971.474 C 329.923,968.29 337.313,976.474 342.736,978.068 C 351.549,979.875 366.297,978.915 368.238,967.671 C 368.179,965.017 367.177,963.428 365.352,961.547 L 367.028,959.08 C 369.755,961.934 370.926,964.483 370.818,968.456 C 368.033,981.311 353.026,983.193 342.179,981.03 C 337.805,979.795 329.658,972.399 326.236,974.379 C 313.979,981.917 301.691,985.287 288.088,978.727 C 281.144,974.379 277.971,969.069 277.613,961.018 L 280.488,961.018 z "
         id="path596"
         style="fill:black;fill-opacity:1;fill-rule:nonzero;stroke:none;stroke-width:1pt;stroke-linecap:butt;stroke-linejoin:miter;stroke-opacity:1" />
      <path
         transform="translate(41.16,-82.32)"
         d="M 385.825,972.248 C 385.478,974.035 386.843,968.751 387.312,966.992 C 388.432,962.79 389.22,958.511 390.503,954.354 C 393.808,946.418 404.043,942.61 410.114,950.242 C 412.842,956.187 403.627,959.376 405.506,962.958 C 411.488,971.082 426.056,972.62 435.174,973.333 C 439.662,973.46 443.892,973.202 448.27,972.18 L 448.716,975.22 C 444.132,976.212 439.703,976.456 435.02,976.295 C 424.987,975.484 409.078,973.782 403.009,964.381 C 401.065,958.447 409.278,956.629 408.11,952.522 C 403.951,946.18 395.375,949.937 392.96,955.524 C 391.177,961.204 389.53,967.408 388.57,973.298 L 385.825,972.248 z "
         id="path633"
         style="fill:black;fill-opacity:1;fill-rule:nonzero;stroke:none;stroke-width:1pt;stroke-linecap:butt;stroke-linejoin:miter;stroke-opacity:1" />
      <path
         transform="translate(26.5099,-87.2033)"
         d="M 488.324,957.173 C 484.332,956.916 481.207,958.03 478.027,960.507 C 472.201,965.955 467.338,973.188 477.081,976.58 C 485.655,978.65 494.046,978.112 502.577,976.074 L 503.012,978.898 C 494.126,980.968 485.374,981.546 476.417,979.594 C 463.726,975.44 469.321,964.63 476.635,957.777 C 480.369,954.855 483.745,953.905 488.324,953.611 L 488.324,957.173 z "
         id="path637"
         style="fill:black;fill-opacity:1;fill-rule:nonzero;stroke:none;stroke-width:1pt;stroke-linecap:butt;stroke-linejoin:miter;stroke-opacity:1" />
    </g>
    <g
       style="fill:#4a00ad;fill-opacity:1"
       transform="matrix(-1,0,0,-1,464.962,887.36)"
       id="g945">
      <path
         d="M 76.616,699.191 C 71.1433,698.87 65.4793,698.803 60.049,699.531 C 56.4756,700.243 48.5756,703.298 52.394,708.208 C 57.6394,713.25 66.9246,712.477 73.5552,711.911 L 74.0689,717.905 C 64.94,718.655 53.9037,718.897 47.2283,711.576 C 41.2474,702.055 50.6046,695.177 59.2537,693.559 C 65.0356,692.826 70.8179,693.21 76.616,692.871 L 76.616,699.191 z "
         id="path946"
         style="fill:#4a00ad;fill-opacity:1;fill-rule:nonzero;stroke:none;stroke-width:1pt;stroke-linecap:butt;stroke-linejoin:miter;stroke-opacity:1" />
      <path
         transform="matrix(1,0,0,-1,0,1429.96)"
         d="M 76.616,699.191 C 71.1433,698.87 65.4793,698.803 60.049,699.531 C 56.4756,700.243 48.5756,703.298 52.394,708.208 C 57.6394,713.25 66.9246,712.477 73.5552,711.911 L 74.0689,717.905 C 64.94,718.655 53.9037,718.897 47.2283,711.576 C 41.2474,702.055 50.6046,695.177 59.2537,693.559 C 65.0356,692.826 70.8179,693.21 76.616,692.871 L 76.616,699.191 z "
         id="path947"
         style="fill:#4a00ad;fill-opacity:1;fill-rule:nonzero;stroke:none;stroke-width:1pt;stroke-linecap:butt;stroke-linejoin:miter;stroke-opacity:1" />
      <path
         transform="matrix(1.37761,0,0,1.37761,-36.3083,-268.329)"
         d="M 97.4725,715.314 C 95.9739,715.171 94.4332,715.233 92.9308,715.225 C 91.6593,715.221 87.3911,714.57 86.5992,715.949 C 86.3199,716.932 86.7952,718.057 87.6212,718.606 C 89.6232,719.635 92.3258,719.111 94.4738,719.008 C 97.1019,718.882 100.666,718.592 101.469,721.79 C 101.718,724.401 100.091,726.905 98.0616,728.42 C 95.3767,730.071 92.3203,729.766 89.3252,729.389 C 87.5418,729.152 85.7633,728.879 83.9754,728.678 L 84.3042,725.918 C 86.0979,726.132 87.8802,726.429 89.6708,726.666 C 91.8608,726.934 94.3741,727.341 96.3794,726.175 C 97.5334,725.36 98.6465,723.857 98.6551,722.384 C 98.6656,721.287 95.2401,721.72 94.6161,721.751 C 91.7183,721.906 88.5679,722.374 85.9381,720.875 C 83.8198,719.287 82.8836,716.252 84.5272,713.99 C 86.673,711.952 90.204,712.478 92.9308,712.469 C 94.4332,712.462 95.9739,712.524 97.4725,712.381 L 97.4725,715.314 z "
         id="path948"
         style="fill:#4a00ad;fill-opacity:1;fill-rule:nonzero;stroke:none;stroke-width:1pt;stroke-linecap:butt;stroke-linejoin:miter;stroke-opacity:1" />
      <g
         style="fill:#4a00ad;fill-opacity:1"
         transform="matrix(1.16605,0,0,1.06243,-26.2102,-45.238)"
         id="g949">
        <path
           d="M 109.26,713.835 C 111.314,714.063 113.441,713.973 115.502,713.985 C 119.39,714 123.278,713.968 127.167,713.951 C 127.946,713.946 128.726,713.94 129.505,713.915 L 129.505,717.142 C 128.726,717.116 127.946,717.11 127.167,717.105 C 123.278,717.088 119.39,717.056 115.502,717.071 C 113.441,717.083 111.314,716.993 109.26,717.221 L 109.26,713.835 z "
           id="path950"
           style="fill:#4a00ad;fill-opacity:1;fill-rule:nonzero;stroke:none;stroke-width:1pt;stroke-linecap:butt;stroke-linejoin:miter;stroke-opacity:1" />
        <path
           transform="translate(1.34464,0.336121)"
           d="M 119.37,715.871 C 119.211,717.113 119.291,718.422 119.283,719.669 C 119.272,722.157 119.271,724.645 119.289,727.134 C 119.301,728.782 119.317,730.43 119.321,732.078 C 119.322,733.064 119.319,734.051 119.317,735.037 L 115.996,735.037 C 115.994,734.051 115.991,733.064 115.993,732.078 C 115.996,730.43 116.012,728.782 116.024,727.134 C 116.042,724.645 116.042,722.157 116.031,719.669 C 116.022,718.422 116.103,717.113 115.943,715.871 L 119.37,715.871 z "
           id="path951"
           style="fill:#4a00ad;fill-opacity:1;fill-rule:nonzero;stroke:none;stroke-width:1pt;stroke-linecap:butt;stroke-linejoin:miter;stroke-opacity:1" />
      </g>
      <g
         style="fill:#4a00ad;fill-opacity:1"
         id="g952">
        <path
           d="M 129.455,713.855 C 129.236,715.561 129.341,717.357 129.321,719.072 C 129.275,723.382 129.27,727.693 129.313,732.004 C 129.33,733.415 129.351,734.827 129.379,736.238 L 126.104,736.238 C 126.131,734.827 126.153,733.415 126.17,732.004 C 126.213,727.693 126.207,723.382 126.162,719.072 C 126.141,717.357 126.247,715.561 126.028,713.855 L 129.455,713.855 z "
           id="path953"
           style="fill:#4a00ad;fill-opacity:1;fill-rule:nonzero;stroke:none;stroke-width:1pt;stroke-linecap:butt;stroke-linejoin:miter;stroke-opacity:1" />
        <path
           d="M 127.413,712.827 C 128.823,712.983 130.276,712.901 131.693,712.94 C 134.72,713.078 137.382,713.961 137.779,717.351 C 137.87,720.746 136.007,722.782 132.71,723.411 C 131.163,723.606 129.651,723.547 128.105,723.382 L 128.458,720.215 C 129.679,720.352 130.88,720.415 132.103,720.266 C 133.708,719.97 134.521,719.386 134.508,717.69 C 134.384,716.155 132.911,716.202 131.613,716.14 C 130.23,716.112 128.792,716.059 127.413,716.213 L 127.413,712.827 z "
           id="path954"
           style="fill:#4a00ad;fill-opacity:1;fill-rule:nonzero;stroke:none;stroke-width:1pt;stroke-linecap:butt;stroke-linejoin:miter;stroke-opacity:1" />
        <path
           d="M 128.757,721.903 C 129.98,722.039 131.249,721.975 132.477,721.985 C 135.115,722.006 138.074,721.801 140.265,723.52 C 142.118,725.48 141.48,727.892 140.786,730.216 C 140.314,731.789 139.912,733.334 139.861,734.983 C 139.858,735.305 139.861,735.624 139.869,735.945 L 136.564,736.029 C 136.554,735.646 136.551,735.264 136.555,734.881 C 136.617,732.95 137.081,731.138 137.637,729.298 C 137.889,728.454 138.59,726.892 138.123,726.008 C 137.007,724.74 133.95,725.195 132.477,725.207 C 131.249,725.217 129.98,725.153 128.757,725.289 L 128.757,721.903 z "
           id="path955"
           style="fill:#4a00ad;fill-opacity:1;fill-rule:nonzero;stroke:none;stroke-width:1pt;stroke-linecap:butt;stroke-linejoin:miter;stroke-opacity:1" />
        <rect
           y="712.83899"
           x="126.061"
           height="3.02545"
           width="2.3531401"
           id="rect956"
           style="font-size:12px;fill:#4a00ad;fill-opacity:1;fill-rule:evenodd;stroke-width:1pt" />
      </g>
      <path
         id="path957"
         d="M 165.392,724.773 C 165.392,731.731 160.196,737.379 153.794,737.379 C 147.392,737.379 142.197,731.731 142.197,724.773 C 142.197,717.814 147.392,712.167 153.794,712.167 C 160.196,712.167 165.392,717.814 165.392,724.773 z M 161.694,724.451 C 161.694,729.19 158.154,733.037 153.794,733.037 C 149.433,733.037 145.894,729.19 145.894,724.451 C 145.894,719.71 149.433,715.864 153.794,715.864 C 158.154,715.864 161.694,719.71 161.694,724.451 z "
         style="font-size:12px;fill:#4a00ad;fill-opacity:1;fill-rule:evenodd;stroke-width:1pt" />
    </g>
    <g
       style="fill:white;fill-opacity:1"
       transform="matrix(-1,0,0,-1,466.627,887.622)"
       id="g773">
      <path
         d="M 76.616,699.191 C 71.1433,698.87 65.4793,698.803 60.049,699.531 C 56.4756,700.243 48.5756,703.298 52.394,708.208 C 57.6394,713.25 66.9246,712.477 73.5552,711.911 L 74.0689,717.905 C 64.94,718.655 53.9037,718.897 47.2283,711.576 C 41.2474,702.055 50.6046,695.177 59.2537,693.559 C 65.0356,692.826 70.8179,693.21 76.616,692.871 L 76.616,699.191 z "
         id="path728"
         style="fill:white;fill-opacity:1;fill-rule:nonzero;stroke:none;stroke-width:1pt;stroke-linecap:butt;stroke-linejoin:miter;stroke-opacity:1" />
      <path
         transform="matrix(1,0,0,-1,0,1429.96)"
         d="M 76.616,699.191 C 71.1433,698.87 65.4793,698.803 60.049,699.531 C 56.4756,700.243 48.5756,703.298 52.394,708.208 C 57.6394,713.25 66.9246,712.477 73.5552,711.911 L 74.0689,717.905 C 64.94,718.655 53.9037,718.897 47.2283,711.576 C 41.2474,702.055 50.6046,695.177 59.2537,693.559 C 65.0356,692.826 70.8179,693.21 76.616,692.871 L 76.616,699.191 z "
         id="path729"
         style="fill:white;fill-opacity:1;fill-rule:nonzero;stroke:none;stroke-width:1pt;stroke-linecap:butt;stroke-linejoin:miter;stroke-opacity:1" />
      <path
         transform="matrix(1.37761,0,0,1.37761,-36.3083,-268.329)"
         d="M 97.4725,715.314 C 95.9739,715.171 94.4332,715.233 92.9308,715.225 C 91.6593,715.221 87.3911,714.57 86.5992,715.949 C 86.3199,716.932 86.7952,718.057 87.6212,718.606 C 89.6232,719.635 92.3258,719.111 94.4738,719.008 C 97.1019,718.882 100.666,718.592 101.469,721.79 C 101.718,724.401 100.091,726.905 98.0616,728.42 C 95.3767,730.071 92.3203,729.766 89.3252,729.389 C 87.5418,729.152 85.7633,728.879 83.9754,728.678 L 84.3042,725.918 C 86.0979,726.132 87.8802,726.429 89.6708,726.666 C 91.8608,726.934 94.3741,727.341 96.3794,726.175 C 97.5334,725.36 98.6465,723.857 98.6551,722.384 C 98.6656,721.287 95.2401,721.72 94.6161,721.751 C 91.7183,721.906 88.5679,722.374 85.9381,720.875 C 83.8198,719.287 82.8836,716.252 84.5272,713.99 C 86.673,711.952 90.204,712.478 92.9308,712.469 C 94.4332,712.462 95.9739,712.524 97.4725,712.381 L 97.4725,715.314 z "
         id="path734"
         style="fill:white;fill-opacity:1;fill-rule:nonzero;stroke:none;stroke-width:1pt;stroke-linecap:butt;stroke-linejoin:miter;stroke-opacity:1" />
      <g
         style="fill:white;fill-opacity:1"
         transform="matrix(1.16605,0,0,1.06243,-26.2102,-45.238)"
         id="g749">
        <path
           d="M 109.26,713.835 C 111.314,714.063 113.441,713.973 115.502,713.985 C 119.39,714 123.278,713.968 127.167,713.951 C 127.946,713.946 128.726,713.94 129.505,713.915 L 129.505,717.142 C 128.726,717.116 127.946,717.11 127.167,717.105 C 123.278,717.088 119.39,717.056 115.502,717.071 C 113.441,717.083 111.314,716.993 109.26,717.221 L 109.26,713.835 z "
           id="path747"
           style="fill:white;fill-opacity:1;fill-rule:nonzero;stroke:none;stroke-width:1pt;stroke-linecap:butt;stroke-linejoin:miter;stroke-opacity:1" />
        <path
           transform="translate(1.34464,0.336121)"
           d="M 119.37,715.871 C 119.211,717.113 119.291,718.422 119.283,719.669 C 119.272,722.157 119.271,724.645 119.289,727.134 C 119.301,728.782 119.317,730.43 119.321,732.078 C 119.322,733.064 119.319,734.051 119.317,735.037 L 115.996,735.037 C 115.994,734.051 115.991,733.064 115.993,732.078 C 115.996,730.43 116.012,728.782 116.024,727.134 C 116.042,724.645 116.042,722.157 116.031,719.669 C 116.022,718.422 116.103,717.113 115.943,715.871 L 119.37,715.871 z "
           id="path748"
           style="fill:white;fill-opacity:1;fill-rule:nonzero;stroke:none;stroke-width:1pt;stroke-linecap:butt;stroke-linejoin:miter;stroke-opacity:1" />
      </g>
      <g
         style="fill:white;fill-opacity:1"
         id="g763">
        <path
           d="M 129.455,713.855 C 129.236,715.561 129.341,717.357 129.321,719.072 C 129.275,723.382 129.27,727.693 129.313,732.004 C 129.33,733.415 129.351,734.827 129.379,736.238 L 126.104,736.238 C 126.131,734.827 126.153,733.415 126.17,732.004 C 126.213,727.693 126.207,723.382 126.162,719.072 C 126.141,717.357 126.247,715.561 126.028,713.855 L 129.455,713.855 z "
           id="path753"
           style="fill:white;fill-opacity:1;fill-rule:nonzero;stroke:none;stroke-width:1pt;stroke-linecap:butt;stroke-linejoin:miter;stroke-opacity:1" />
        <path
           d="M 127.413,712.827 C 128.823,712.983 130.276,712.901 131.693,712.94 C 134.72,713.078 137.382,713.961 137.779,717.351 C 137.87,720.746 136.007,722.782 132.71,723.411 C 131.163,723.606 129.651,723.547 128.105,723.382 L 128.458,720.215 C 129.679,720.352 130.88,720.415 132.103,720.266 C 133.708,719.97 134.521,719.386 134.508,717.69 C 134.384,716.155 132.911,716.202 131.613,716.14 C 130.23,716.112 128.792,716.059 127.413,716.213 L 127.413,712.827 z "
           id="path756"
           style="fill:white;fill-opacity:1;fill-rule:nonzero;stroke:none;stroke-width:1pt;stroke-linecap:butt;stroke-linejoin:miter;stroke-opacity:1" />
        <path
           d="M 128.757,721.903 C 129.98,722.039 131.249,721.975 132.477,721.985 C 135.115,722.006 138.074,721.801 140.265,723.52 C 142.118,725.48 141.48,727.892 140.786,730.216 C 140.314,731.789 139.912,733.334 139.861,734.983 C 139.858,735.305 139.861,735.624 139.869,735.945 L 136.564,736.029 C 136.554,735.646 136.551,735.264 136.555,734.881 C 136.617,732.95 137.081,731.138 137.637,729.298 C 137.889,728.454 138.59,726.892 138.123,726.008 C 137.007,724.74 133.95,725.195 132.477,725.207 C 131.249,725.217 129.98,725.153 128.757,725.289 L 128.757,721.903 z "
           id="path759"
           style="fill:white;fill-opacity:1;fill-rule:nonzero;stroke:none;stroke-width:1pt;stroke-linecap:butt;stroke-linejoin:miter;stroke-opacity:1" />
        <rect
           y="712.83899"
           x="126.061"
           height="3.02545"
           width="2.3531401"
           id="rect762"
           style="font-size:12px;fill:white;fill-opacity:1;fill-rule:evenodd;stroke-width:1pt" />
      </g>
      <path
         id="path772"
         d="M 165.392,724.773 C 165.392,731.731 160.196,737.379 153.794,737.379 C 147.392,737.379 142.197,731.731 142.197,724.773 C 142.197,717.814 147.392,712.167 153.794,712.167 C 160.196,712.167 165.392,717.814 165.392,724.773 z M 161.694,724.451 C 161.694,729.19 158.154,733.037 153.794,733.037 C 149.433,733.037 145.894,729.19 145.894,724.451 C 145.894,719.71 149.433,715.864 153.794,715.864 C 158.154,715.864 161.694,719.71 161.694,724.451 z "
         style="font-size:12px;fill:white;fill-opacity:1;fill-rule:evenodd;stroke-width:1pt" />
    </g>
    <path
       transform="matrix(-1,0,0,1,777.838,-2.35202)"
       sodipodi:nodetypes="ccccc"
       id="path238"
       d="M 305.824,327.578 C 300.521,315.203 334.108,187.925 344.715,177.318 C 355.322,172.015 395.98,168.479 395.98,168.479 C 390.677,194.995 362.393,292.222 353.553,302.829 C 335.876,313.436 321.733,324.042 305.824,327.578 z "
       style="fill:none;fill-opacity:1;fill-rule:evenodd;stroke:black;stroke-width:1pt;stroke-linecap:butt;stroke-linejoin:miter;stroke-opacity:0.19496903" />
    <path
       transform="translate(-54.4422,-2.35202)"
       sodipodi:nodetypes="ccccc"
       id="path237"
       d="M 305.824,327.578 C 300.521,315.203 334.108,187.925 344.715,177.318 C 355.322,172.015 395.98,168.479 395.98,168.479 C 390.677,194.995 362.393,292.222 353.553,302.829 C 335.876,313.436 321.733,324.042 305.824,327.578 z "
       style="fill:none;fill-opacity:1;fill-rule:evenodd;stroke:black;stroke-width:1pt;stroke-linecap:butt;stroke-linejoin:miter;stroke-opacity:0.19496903" />
  </g>
</svg>
